# xmcd
#
# Track frame offsets:
#	150
#	15580
#	33708
#	54120
#	73539
#	89155
#	107486
#	123829
#	140959
#	158351
#	177004
#	194445
#	209838
#	225349
#	241720
#
# Disc length: 3430 seconds
#
# Revision: 0
# Processed by: cddbd v1.5.2PL0 Copyright (c) Steve Scherf et al.
# Submitted via: audiograbber 1.83.01
#
DISCID=c50d640f
DTITLE=Destrophy - The Way of Your World
DYEAR=2009
DGENRE=Metal
TTITLE0=This Is Not My Life
TTITLE1=The Way of Your World
TTITLE2=March of the Dreamless
TTITLE3=Losing Everything
TTITLE4=Empty
TTITLE5=Innocence
TTITLE6=I Stand
TTITLE7=Let It Go
TTITLE8=Why I Hate Goodbye
TTITLE9=Eye For Eye
TTITLE10=Rise Again
TTITLE11=Pray
TTITLE12=Arms of the Enemy
TTITLE13=Born Again
TTITLE14=Monarch
EXTD=
EXTT0=
EXTT1=
EXTT2=
EXTT3=
EXTT4=
EXTT5=
EXTT6=
EXTT7=
EXTT8=
EXTT9=
EXTT10=
EXTT11=
EXTT12=
EXTT13=
EXTT14=
PLAYORDER=
